<?xml version="1.0" encoding="utf-8"?>
<svg viewBox="0 0 16 16" xmlns="http://www.w3.org/2000/svg">
  <g fill="#2e3436">
    <path d="m 3 1 h 3 c 0.550781 0 1 0.449219 1 1 v 12 c 0 0.550781 -0.449219 1 -1 1 h -3 c -0.550781 0 -1 -0.449219 -1 -1 v -12 c 0 -0.550781 0.449219 -1 1 -1 z m 0 0" style="fill: rgb(223, 45, 45);"/>
    <path d="m 10 1 h 3 c 0.550781 0 1 0.449219 1 1 v 12 c 0 0.550781 -0.449219 1 -1 1 h -3 c -0.550781 0 -1 -0.449219 -1 -1 v -12 c 0 -0.550781 0.449219 -1 1 -1 z m 0 0" style="fill: rgb(223, 45, 45);"/>
  </g>
</svg>